<mxfile host="65bd71144e">
    <diagram id="nyTn372R6Oij5jTGV8CP" name="page_set(BasePageクラス)">
        <mxGraphModel dx="732" dy="563" grid="1" gridSize="10" guides="1" tooltips="1" connect="1" arrows="1" fold="1" page="1" pageScale="1" pageWidth="827" pageHeight="1169" math="0" shadow="0">
            <root>
                <mxCell id="0"/>
                <mxCell id="1" parent="0"/>
                <mxCell id="2" value="" style="edgeStyle=orthogonalEdgeStyle;rounded=0;orthogonalLoop=1;jettySize=auto;html=1;" edge="1" parent="1" source="3">
                    <mxGeometry relative="1" as="geometry">
                        <mxPoint x="385" y="420" as="targetPoint"/>
                    </mxGeometry>
                </mxCell>
                <mxCell id="3" value="開始" style="strokeWidth=2;html=1;shape=mxgraph.flowchart.start_1;whiteSpace=wrap;" vertex="1" parent="1">
                    <mxGeometry x="350" y="300" width="70" height="40" as="geometry"/>
                </mxCell>
                <mxCell id="4" style="rounded=0;orthogonalLoop=1;jettySize=auto;html=1;entryX=1.02;entryY=0.26;entryDx=0;entryDy=0;endArrow=none;endFill=0;entryPerimeter=0;" edge="1" parent="1" source="5" target="3">
                    <mxGeometry relative="1" as="geometry">
                        <mxPoint x="425" y="330" as="targetPoint"/>
                    </mxGeometry>
                </mxCell>
                <mxCell id="5" value="&lt;div&gt;初期化メソッド&lt;/div&gt;&lt;div&gt;※インスタンス生成時に実行されます。&lt;/div&gt;&lt;div&gt;引数１：self &amp;gt;インスタンス自身&lt;/div&gt;&lt;div&gt;引数２：pages &amp;gt;ページクラスの配列&lt;/div&gt;" style="text;html=1;align=left;verticalAlign=top;whiteSpace=wrap;rounded=0;fillColor=#f5f5f5;fontColor=#333333;strokeColor=#666666;" vertex="1" parent="1">
                    <mxGeometry x="490" y="230" width="350" height="70" as="geometry"/>
                </mxCell>
                <mxCell id="6" value="&lt;b style=&quot;&quot;&gt;&lt;font style=&quot;&quot;&gt;&lt;font style=&quot;font-size: 18px;&quot;&gt;ページクラスを配置するメソッド&lt;/font&gt;&lt;/font&gt;&lt;/b&gt;&lt;div&gt;&lt;font style=&quot;font-size: 14px;&quot;&gt;クラス：BaseWindow&lt;/font&gt;&lt;span style=&quot;font-size: 14px; background-color: initial;&quot;&gt;クラス（抽象クラス&lt;/span&gt;&lt;span style=&quot;background-color: initial; font-size: 14px;&quot;&gt;）&lt;/span&gt;&lt;/div&gt;&lt;div style=&quot;font-size: 14px;&quot;&gt;&lt;br&gt;&lt;/div&gt;&lt;div style=&quot;font-size: 14px;&quot;&gt;メソッドの役割&lt;/div&gt;&lt;div style=&quot;font-size: 14px;&quot;&gt;Windowクラスで管理するページクラスを配置する&lt;span style=&quot;background-color: initial;&quot;&gt;処理&lt;/span&gt;&lt;/div&gt;" style="text;html=1;align=left;verticalAlign=top;whiteSpace=wrap;rounded=0;fillColor=#f5f5f5;fontColor=#333333;strokeColor=#666666;" vertex="1" parent="1">
                    <mxGeometry x="20" y="30" width="290" height="180" as="geometry"/>
                </mxCell>
                <mxCell id="7" value="終了" style="strokeWidth=2;html=1;shape=mxgraph.flowchart.start_1;whiteSpace=wrap;" vertex="1" parent="1">
                    <mxGeometry x="350" y="1123" width="70" height="40" as="geometry"/>
                </mxCell>
                <mxCell id="8" value="" style="edgeStyle=orthogonalEdgeStyle;rounded=0;orthogonalLoop=1;jettySize=auto;html=1;" edge="1" parent="1">
                    <mxGeometry relative="1" as="geometry">
                        <mxPoint x="385" y="1123" as="targetPoint"/>
                        <mxPoint x="385" y="1043" as="sourcePoint"/>
                    </mxGeometry>
                </mxCell>
                <mxCell id="9" value="" style="edgeStyle=orthogonalEdgeStyle;rounded=0;orthogonalLoop=1;jettySize=auto;html=1;fontColor=#333333;" edge="1" parent="1" source="10">
                    <mxGeometry relative="1" as="geometry">
                        <mxPoint x="385" y="557" as="targetPoint"/>
                    </mxGeometry>
                </mxCell>
                <mxCell id="10" value="&lt;span style=&quot;&quot;&gt;Windowクラスに配置する&lt;/span&gt;&lt;div&gt;&lt;span style=&quot;text-align: left;&quot;&gt;引数２の配列分ループする&lt;br&gt;ループ開始&lt;/span&gt;&lt;/div&gt;" style="strokeWidth=2;html=1;shape=mxgraph.flowchart.loop_limit;whiteSpace=wrap;fontColor=#333333;" vertex="1" parent="1">
                    <mxGeometry x="286.5" y="420" width="197" height="57" as="geometry"/>
                </mxCell>
                <mxCell id="11" value="" style="edgeStyle=orthogonalEdgeStyle;rounded=0;orthogonalLoop=1;jettySize=auto;html=1;" edge="1" parent="1" source="12" target="14">
                    <mxGeometry relative="1" as="geometry"/>
                </mxCell>
                <mxCell id="12" value="取り出したPageクラスインスタンスから取り出した&lt;span style=&quot;background-color: initial;&quot;&gt;クラス名（文字列）を取得&lt;/span&gt;" style="rounded=1;whiteSpace=wrap;html=1;fontColor=#333333;" vertex="1" parent="1">
                    <mxGeometry x="285" y="557" width="200" height="60" as="geometry"/>
                </mxCell>
                <mxCell id="13" value="" style="edgeStyle=orthogonalEdgeStyle;rounded=0;orthogonalLoop=1;jettySize=auto;html=1;fontColor=#333333;" edge="1" parent="1" source="14" target="16">
                    <mxGeometry relative="1" as="geometry"/>
                </mxCell>
                <mxCell id="14" value="Windowクラスの辞書型インスタンス変数にクラス名を&lt;span style=&quot;background-color: initial;&quot;&gt;キーに生成したPageクラス&lt;/span&gt;&lt;span style=&quot;background-color: initial;&quot;&gt;インスタンスを代入&lt;/span&gt;" style="rounded=1;whiteSpace=wrap;html=1;fontColor=#333333;" vertex="1" parent="1">
                    <mxGeometry x="285.5" y="703" width="200" height="60" as="geometry"/>
                </mxCell>
                <mxCell id="15" value="" style="edgeStyle=orthogonalEdgeStyle;rounded=0;orthogonalLoop=1;jettySize=auto;html=1;fontColor=#333333;" edge="1" parent="1" source="16" target="19">
                    <mxGeometry relative="1" as="geometry"/>
                </mxCell>
                <mxCell id="16" value="生成したクラスをself.gridメソッド&lt;div&gt;で配置&lt;/div&gt;" style="rounded=1;whiteSpace=wrap;html=1;fontColor=#333333;" vertex="1" parent="1">
                    <mxGeometry x="285.5" y="843" width="200" height="60" as="geometry"/>
                </mxCell>
                <mxCell id="17" style="rounded=0;orthogonalLoop=1;jettySize=auto;html=1;entryX=1;entryY=0.5;entryDx=0;entryDy=0;endArrow=none;endFill=0;fontColor=#333333;" edge="1" parent="1" source="18" target="16">
                    <mxGeometry relative="1" as="geometry"/>
                </mxCell>
                <mxCell id="18" value="引数１：row=0 ＞0行目へ配置&lt;div&gt;引数２：column=0 ＞&lt;span style=&quot;background-color: initial;&quot;&gt;0列目へ配置&lt;/span&gt;&lt;/div&gt;&lt;div&gt;&lt;span style=&quot;background-color: initial;&quot;&gt;引数３：&lt;/span&gt;&lt;span style=&quot;background-color: initial;&quot;&gt;sticky=&quot;nsew&quot; ＞ 配置したクラスを全方向へ広げる&lt;/span&gt;&lt;/div&gt;" style="text;html=1;align=left;verticalAlign=top;whiteSpace=wrap;rounded=0;fillColor=#f5f5f5;fontColor=#333333;strokeColor=#666666;" vertex="1" parent="1">
                    <mxGeometry x="545.5" y="813" width="335" height="60" as="geometry"/>
                </mxCell>
                <mxCell id="19" value="ループ終了" style="strokeWidth=2;html=1;shape=mxgraph.flowchart.loop_limit;whiteSpace=wrap;direction=west;fontColor=#333333;" vertex="1" parent="1">
                    <mxGeometry x="305.5" y="983" width="160" height="60" as="geometry"/>
                </mxCell>
            </root>
        </mxGraphModel>
    </diagram>
</mxfile>